<?xml version="1.0" encoding="utf-8"?>
<!-- Generator: Adobe Illustrator 27.0.0, SVG Export Plug-In . SVG Version: 6.00 Build 0)  -->
<svg version="1.1" id="_图层_1" xmlns="http://www.w3.org/2000/svg" xmlns:xlink="http://www.w3.org/1999/xlink" x="0px" y="0px"
	 viewBox="0 0 153.2 36" style="enable-background:new 0 0 153.2 36;" xml:space="preserve">
<style type="text/css">
	.st0{display:none;}
	.st1{display:inline;fill:url(#SVGID_1_);}
	.st2{display:inline;}
	.st3{fill:url(#SVGID_00000080190413649119102130000009579035570037280410_);}
	.st4{fill:url(#SVGID_00000050649930946429923350000014030344038389689729_);}
	.st5{fill:url(#SVGID_00000005268660992203498420000011986900647959476872_);}
	.st6{fill:url(#SVGID_00000111175491039678280620000005329472295438979493_);}
	.st7{fill:url(#SVGID_00000141436090870105763230000003291656144141383838_);}
	.st8{fill:url(#SVGID_00000057828129012883700560000007176075153456956042_);}
	.st9{fill:url(#SVGID_00000162312629812500581450000000466932926325102257_);}
	.st10{fill:url(#SVGID_00000100355963908612198920000006837384988464774056_);}
	.st11{fill:url(#SVGID_00000126310229635341103270000016799186234597263775_);}
	.st12{fill:url(#SVGID_00000165917594075374877600000014531003426097449626_);}
	.st13{fill:url(#SVGID_00000145057100873766510010000002568406038840926642_);}
	.st14{fill:url(#SVGID_00000007392617075546444770000003411522847567869582_);}
	.st15{fill:url(#SVGID_00000058548044495615258370000000076802277625766316_);}
	.st16{fill:url(#SVGID_00000026159336787340008000000001275422976486224306_);}
	.st17{fill:url(#SVGID_00000036241689410937609190000017301290188554947256_);}
	.st18{fill:url(#SVGID_00000147931900607302528980000007862784778380651937_);}
	.st19{fill:url(#SVGID_00000101068398216090949160000000427177587317594549_);}
	.st20{fill:url(#SVGID_00000072272251206216812750000013579840970891000238_);}
	.st21{fill:url(#SVGID_00000141427198740537953470000007859310453189614223_);}
	.st22{fill:url(#SVGID_00000140695375784022979040000000315798568643283363_);}
	.st23{fill:url(#SVGID_00000171696854600852794600000000860251376928146359_);}
	.st24{fill:url(#SVGID_00000176017835571453534480000008151236776971027896_);}
	.st25{fill:url(#SVGID_00000048472613551771732920000011856246121121146788_);}
</style>
<g class="st0">
	
		<linearGradient id="SVGID_1_" gradientUnits="userSpaceOnUse" x1="15.5" y1="745.5" x2="15.5" y2="751.9" gradientTransform="matrix(1 0 0 1 0 -732.1)">
		<stop  offset="0" style="stop-color:#3370FF"/>
		<stop  offset="1" style="stop-color:#7F3BF5"/>
	</linearGradient>
	<path class="st1" d="M16.3,13.4h-0.9c-0.2,0-0.4,0-0.5,0.2c-0.1,0.1-0.2,0.3-0.2,0.5v5c0,0,0,0.2,0,0.3c0,0,0,0.2,0.1,0.2
		c0,0,0.1,0.1,0.2,0.1c0,0,0.2,0,0.3,0h0.9v-6.4L16.3,13.4z"/>
	<g class="st2">
		
			<linearGradient id="SVGID_00000171713309380406233060000008740386092180673687_" gradientUnits="userSpaceOnUse" x1="119.75" y1="741.7" x2="119.75" y2="758.7" gradientTransform="matrix(1 0 0 1 0 -732.1)">
			<stop  offset="0" style="stop-color:#3370FF"/>
			<stop  offset="1" style="stop-color:#7F3BF5"/>
		</linearGradient>
		<path style="fill:url(#SVGID_00000171713309380406233060000008740386092180673687_);" d="M122.5,27c0-0.1-4.2-6.8-4.2-6.8
			l-1.4,2.1V27h-4.6V9.1h4.6v7.2l4.2-7.2h4.8l-5,7.9l6.3,9.9h-4.7L122.5,27z"/>
		
			<linearGradient id="SVGID_00000129916164448668687800000004919587030976408502_" gradientUnits="userSpaceOnUse" x1="135.4" y1="741.2" x2="135.4" y2="758.5" gradientTransform="matrix(1 0 0 1 0 -732.1)">
			<stop  offset="0" style="stop-color:#3370FF"/>
			<stop  offset="1" style="stop-color:#7F3BF5"/>
		</linearGradient>
		<path style="fill:url(#SVGID_00000129916164448668687800000004919587030976408502_);" d="M142.4,22.1c0,2.6-1.3,5-5.9,5h-8.1V9
			h6.2c0-0.1,3.7-0.3,5.5,1.1c1.4,1,1.8,2.8,1.7,4.4c-0.1,1.5-0.8,2.5-2,3.2C141.4,18.3,142.4,19.5,142.4,22.1z M135.6,16.3
			c1.5,0,2.4-0.8,2.4-1.9s-0.8-1.9-2.4-1.9h-2.7v3.7L135.6,16.3L135.6,16.3z M135.7,23.5c2.1,0,2.7-1.1,2.7-1.9
			c0-1.2-0.9-2.1-2.3-2.1h-3.2v4H135.7z"/>
		
			<linearGradient id="SVGID_00000062167955861110512930000017416757000575511702_" gradientUnits="userSpaceOnUse" x1="29.5" y1="758.9" x2="29.5" y2="761.8" gradientTransform="matrix(1 0 0 1 0 -732.1)">
			<stop  offset="0" style="stop-color:#3370FF"/>
			<stop  offset="1" style="stop-color:#7F3BF5"/>
		</linearGradient>
		<path style="fill:url(#SVGID_00000062167955861110512930000017416757000575511702_);" d="M31.8,26.7h-4.6l-1.7,1.7
			c0,0-0.2,0.2-0.2,0.4s0,0.3,0,0.4s0.1,0.2,0.3,0.3c0.1,0,0.3,0.1,0.4,0.1h7c0.1,0,0.3,0,0.4-0.1c0.1,0,0.2-0.2,0.3-0.3
			c0-0.1,0-0.3,0-0.4s0-0.3-0.2-0.4C33.5,28.4,31.8,26.7,31.8,26.7z"/>
		
			<linearGradient id="SVGID_00000066508186521085172460000003488831503235103371_" gradientUnits="userSpaceOnUse" x1="44.25" y1="745.5" x2="44.25" y2="751.9" gradientTransform="matrix(1 0 0 1 0 -732.1)">
			<stop  offset="0" style="stop-color:#3370FF"/>
			<stop  offset="1" style="stop-color:#7F3BF5"/>
		</linearGradient>
		<path style="fill:url(#SVGID_00000066508186521085172460000003488831503235103371_);" d="M44.4,13.4h-0.9v6.4h0.9c0,0,0.2,0,0.3,0
			c0,0,0.2,0,0.2-0.1c0,0,0.1-0.1,0.1-0.2c0,0,0-0.2,0-0.3v-5c0-0.2,0-0.4-0.2-0.5c-0.1-0.1-0.3-0.2-0.5-0.2L44.4,13.4z"/>
		
			<linearGradient id="SVGID_00000126294951144465455860000005254122174569471655_" gradientUnits="userSpaceOnUse" x1="33.4" y1="746.4" x2="33.4" y2="749.9" gradientTransform="matrix(1 0 0 1 0 -732.1)">
			<stop  offset="0" style="stop-color:#3370FF"/>
			<stop  offset="1" style="stop-color:#7F3BF5"/>
		</linearGradient>
		<path style="fill:url(#SVGID_00000126294951144465455860000005254122174569471655_);" d="M33.4,14.2c-0.3,0-0.7,0.1-0.9,0.4
			s-0.4,0.6-0.4,0.9v0.9c0,0.3,0.1,0.7,0.4,0.9c0.2,0.2,0.6,0.4,0.9,0.4s0.7-0.1,0.9-0.4c0.2-0.2,0.4-0.6,0.4-0.9v-0.9
			c0-0.2,0-0.3,0-0.5s-0.2-0.3-0.3-0.4c-0.1-0.1-0.3-0.2-0.4-0.3c-0.2,0-0.3,0-0.5,0L33.4,14.2z"/>
		
			<linearGradient id="SVGID_00000054951217851546019440000003302949060117799339_" gradientUnits="userSpaceOnUse" x1="26.7" y1="746.4" x2="26.7" y2="749.9" gradientTransform="matrix(1 0 0 1 0 -732.1)">
			<stop  offset="0" style="stop-color:#3370FF"/>
			<stop  offset="1" style="stop-color:#7F3BF5"/>
		</linearGradient>
		<path style="fill:url(#SVGID_00000054951217851546019440000003302949060117799339_);" d="M26.7,14.2c-0.3,0-0.7,0.1-0.9,0.4
			c-0.2,0.2-0.4,0.6-0.4,0.9v0.9c0,0.3,0.1,0.7,0.4,0.9c0.2,0.2,0.6,0.4,0.9,0.4s0.7-0.1,0.9-0.4c0.2-0.2,0.4-0.6,0.4-0.9v-0.9
			c0-0.2,0-0.3,0-0.5s-0.2-0.3-0.3-0.4c-0.1-0.1-0.3-0.2-0.4-0.3c-0.2,0-0.3,0-0.5,0L26.7,14.2z"/>
		
			<linearGradient id="SVGID_00000127035082142975063290000012081440060893839745_" gradientUnits="userSpaceOnUse" x1="29.95" y1="739" x2="29.95" y2="758.3" gradientTransform="matrix(1 0 0 1 0 -732.1)">
			<stop  offset="0" style="stop-color:#3370FF"/>
			<stop  offset="1" style="stop-color:#7F3BF5"/>
		</linearGradient>
		<path style="fill:url(#SVGID_00000127035082142975063290000012081440060893839745_);" d="M37.8,6.9H22.1c-1.4,0-2.7,0.6-3.7,1.5
			c-1,1-1.5,2.3-1.5,3.7v8.8c0,1.4,0.6,2.7,1.5,3.7c1,1,2.3,1.5,3.7,1.5h15.7c1.4,0,2.7-0.6,3.7-1.5c1-1,1.5-2.3,1.5-3.7v-8.8
			c0-1.4-0.6-2.7-1.5-3.7C40.5,7.4,39.2,6.9,37.8,6.9z M38.2,20.9c0,0.2,0,0.5-0.3,0.7c-0.2,0.2-0.4,0.3-0.7,0.3h-7.6
			c-1.2,0-2.3,0.3-3.3,0.9l-2.6,1.4v-2.3h-1.2c-0.2,0-0.5,0-0.7-0.3c-0.2-0.2-0.3-0.4-0.3-0.7v-9.4c0-0.2,0-0.5,0.3-0.7
			s0.4-0.3,0.7-0.3h14.7c0.2,0,0.5,0,0.7,0.3c0.2,0.2,0.3,0.4,0.3,0.7V20.9z"/>
		
			<linearGradient id="SVGID_00000106845500630136695660000002782749648110930877_" gradientUnits="userSpaceOnUse" x1="58.65" y1="28.9" x2="58.65" y2="11.1" gradientTransform="matrix(1 0 0 -1 0 38)">
			<stop  offset="0" style="stop-color:#3370FF"/>
			<stop  offset="1" style="stop-color:#7F3BF5"/>
		</linearGradient>
		<polyline style="fill:url(#SVGID_00000106845500630136695660000002782749648110930877_);" points="63.8,26.9 63.8,12.6 60.5,23.6 
			56.7,23.6 53.5,12.6 53.5,26.9 49.8,26.9 49.8,26.6 49.8,9.1 55.7,9.1 58.6,19.2 61.6,9.1 67.5,9.1 67.5,26.9 		"/>
		
			<linearGradient id="SVGID_00000137122191644779271350000009271891280352973237_" gradientUnits="userSpaceOnUse" x1="76.6" y1="24.2" x2="76.6" y2="11.1" gradientTransform="matrix(1 0 0 -1 0 38)">
			<stop  offset="0" style="stop-color:#3370FF"/>
			<stop  offset="1" style="stop-color:#7F3BF5"/>
		</linearGradient>
		<path style="fill:url(#SVGID_00000137122191644779271350000009271891280352973237_);" d="M77.9,13.8h-2.6c-2.7,0-4.9,2.2-4.9,4.9
			v3.4c0,2.7,2.2,4.9,4.9,4.9h2.6c2.7,0,4.9-2.2,4.9-4.9v-3.4C82.8,16,80.6,13.8,77.9,13.8z M79.2,22.1c0,1.2-1,2.2-2.2,2.2h-0.9
			c-1.2,0-2.2-1-2.2-2.2v-3.5c0-1.2,1-2.2,2.2-2.2H77c1.2,0,2.2,1,2.2,2.2V22.1z"/>
		
			<linearGradient id="SVGID_00000170257029001710167140000014198772116506743959_" gradientUnits="userSpaceOnUse" x1="91.2" y1="29.1" x2="91.2" y2="11.1" gradientTransform="matrix(1 0 0 -1 0 38)">
			<stop  offset="0" style="stop-color:#3370FF"/>
			<stop  offset="1" style="stop-color:#7F3BF5"/>
		</linearGradient>
		<polygon style="fill:url(#SVGID_00000170257029001710167140000014198772116506743959_);" points="85.2,8.9 85.2,26.9 88.7,26.9 
			88.7,21.2 89.4,21.2 92.7,26.9 97.2,26.9 92.3,19.8 96.7,13.8 92.8,13.8 89.4,18.7 88.6,18.7 88.8,8.9 		"/>
		
			<linearGradient id="SVGID_00000072244296539206011350000003713399783001107352_" gradientUnits="userSpaceOnUse" x1="104.1201" y1="24.3" x2="104.1201" y2="11" gradientTransform="matrix(1 0 0 -1 0 38)">
			<stop  offset="0" style="stop-color:#3370FF"/>
			<stop  offset="1" style="stop-color:#7F3BF5"/>
		</linearGradient>
		<path style="fill:url(#SVGID_00000072244296539206011350000003713399783001107352_);" d="M110.1,21.1v-2.7c0-0.9-0.1-1.3-0.3-1.8
			c-0.6-1.4-2-2.4-3.4-2.7c-0.4,0-1-0.3-2.1-0.2c-0.7,0-1.2,0-1.8,0.2c-0.4,0-1.2,0.2-1.8,0.7c-1.6,0.9-2,2.7-2.3,3.6
			c-0.3,1.2-0.3,2.1-0.2,2.7c0,0.4,0,1.1,0.3,2c0.2,0.7,0.6,2,1.7,3c0.9,0.7,1.7,0.8,3.2,1.1c0.8,0.1,2.4,0.4,4.3,0
			c0.8-0.2,1.4-0.5,1.8-0.7v-2.8l0,0c-0.8,0.4-2.5,1.2-4.6,1.1c-1.3-0.1-1.9-0.5-2.1-0.7c-0.3-0.2-0.8-0.6-1-1.3c0-0.4,0-0.7,0-0.9
			l8.3-0.3V21.1z M101.6,19.2c0,0,0-0.2,0-0.3c0-0.1,0-1.9,1.3-2.6c0.2-0.1,0.5-0.2,1-0.2c0.9-0.1,1.5-0.2,2.1,0.1
			c0.9,0.5,1.2,1.6,1.1,2.4c0,0.1,0,0.3,0,0.3l-5.4,0.2L101.6,19.2z"/>
	</g>
</g>
<linearGradient id="SVGID_00000058563075638058321720000010967677714835833765_" gradientUnits="userSpaceOnUse" x1="54.0768" y1="25.5914" x2="54.0768" y2="11.2057">
	<stop  offset="0" style="stop-color:#7D3DF6"/>
	<stop  offset="1" style="stop-color:#356EFE"/>
</linearGradient>
<path style="fill:url(#SVGID_00000058563075638058321720000010967677714835833765_);" d="M59.7,23.5c-0.5,0.6-1.2,1.1-2.1,1.5
	c-0.9,0.4-2,0.6-3.4,0.6c-1.7,0-3.1-0.5-4.2-1.6c-1.1-1.1-1.6-2.4-1.6-4.1v-2.9c0-1.7,0.5-3.1,1.6-4.1c1.1-1.1,2.4-1.6,4.1-1.6
	c1.8,0,3.1,0.4,4,1.2c0.9,0.8,1.4,1.9,1.3,3.3l0,0.1h-3c0-0.7-0.2-1.2-0.5-1.5c-0.4-0.3-0.9-0.5-1.7-0.5c-0.8,0-1.4,0.3-1.8,0.9
	c-0.5,0.6-0.7,1.4-0.7,2.3v2.9c0,1,0.2,1.8,0.7,2.3c0.5,0.6,1.1,0.9,1.9,0.9c0.6,0,1.1,0,1.4-0.1c0.3-0.1,0.6-0.2,0.8-0.4v-2.5H54
	v-2.2h5.7V23.5z"/>
<linearGradient id="SVGID_00000042714067013254228230000003293889496663754655_" gradientUnits="userSpaceOnUse" x1="66.4143" y1="25.5914" x2="66.4143" y2="14.8069">
	<stop  offset="0" style="stop-color:#7D3DF6"/>
	<stop  offset="1" style="stop-color:#356EFE"/>
</linearGradient>
<path style="fill:url(#SVGID_00000042714067013254228230000003293889496663754655_);" d="M61.4,20.1c0-1.6,0.4-2.8,1.3-3.8
	c0.9-1,2.1-1.5,3.7-1.5c1.6,0,2.8,0.5,3.7,1.5c0.9,1,1.3,2.3,1.3,3.8v0.2c0,1.6-0.4,2.8-1.3,3.8c-0.9,1-2.1,1.5-3.7,1.5
	c-1.6,0-2.8-0.5-3.7-1.5c-0.9-1-1.3-2.3-1.3-3.8V20.1z M64.6,20.3c0,0.9,0.1,1.6,0.4,2.1c0.3,0.5,0.7,0.7,1.4,0.7
	c0.6,0,1.1-0.2,1.4-0.7c0.3-0.5,0.4-1.2,0.4-2v-0.2c0-0.8-0.1-1.5-0.4-2c-0.3-0.5-0.7-0.8-1.4-0.8c-0.6,0-1.1,0.3-1.4,0.8
	c-0.3,0.5-0.4,1.2-0.4,2V20.3z"/>
<linearGradient id="SVGID_00000020374264550818498950000017116678430110350218_" gradientUnits="userSpaceOnUse" x1="78.5363" y1="25.5914" x2="78.5363" y2="11.2057">
	<stop  offset="0" style="stop-color:#7D3DF6"/>
	<stop  offset="1" style="stop-color:#356EFE"/>
</linearGradient>
<path style="fill:url(#SVGID_00000020374264550818498950000017116678430110350218_);" d="M80.7,21.7c0-0.5-0.2-0.9-0.5-1.1
	c-0.3-0.3-0.9-0.5-1.8-0.8c-1.7-0.6-3-1.2-3.9-1.8c-0.8-0.6-1.3-1.6-1.3-2.8c0-1.2,0.5-2.1,1.5-2.8c1-0.7,2.2-1.1,3.7-1.1
	c1.6,0,2.9,0.4,3.9,1.1c1,0.7,1.4,1.8,1.4,3.2l0,0.1h-3.1c0-0.7-0.2-1.1-0.5-1.4c-0.4-0.3-0.9-0.4-1.6-0.4c-0.6,0-1.1,0.1-1.4,0.4
	c-0.3,0.3-0.5,0.6-0.5,1.1c0,0.4,0.2,0.7,0.5,1c0.3,0.2,1,0.6,2,0.9c1.6,0.5,2.8,1.1,3.7,1.8c0.8,0.7,1.2,1.6,1.2,2.8
	c0,1.2-0.5,2.2-1.4,2.9c-1,0.7-2.2,1-3.8,1c-1.6,0-2.9-0.4-4-1.1c-1.1-0.7-1.6-1.9-1.6-3.5l0-0.1h3.2c0,0.8,0.2,1.4,0.6,1.7
	c0.4,0.3,1,0.5,1.8,0.5c0.7,0,1.2-0.1,1.5-0.4C80.6,22.5,80.7,22.1,80.7,21.7z"/>
<linearGradient id="SVGID_00000103238244432061023850000005049973188356596157_" gradientUnits="userSpaceOnUse" x1="90.2952" y1="25.5914" x2="90.2952" y2="14.8068">
	<stop  offset="0" style="stop-color:#7D3DF6"/>
	<stop  offset="1" style="stop-color:#356EFE"/>
</linearGradient>
<path style="fill:url(#SVGID_00000103238244432061023850000005049973188356596157_);" d="M90.7,25.6c-1.6,0-2.8-0.5-3.7-1.4
	c-0.9-1-1.3-2.2-1.3-3.6v-0.4c0-1.6,0.4-2.9,1.3-3.9c0.8-1,2.1-1.5,3.7-1.5c1.4,0,2.5,0.4,3.3,1.3c0.8,0.8,1.2,2,1.2,3.4v1.7h-6
	l0,0.1c0.1,0.5,0.3,1,0.6,1.3c0.4,0.3,0.9,0.5,1.5,0.5c0.6,0,1.1-0.1,1.6-0.2c0.4-0.1,0.9-0.3,1.4-0.5l0.8,2
	c-0.4,0.3-1.1,0.6-1.8,0.8C92.3,25.5,91.5,25.6,90.7,25.6z M90.5,17.3c-0.5,0-0.9,0.2-1.1,0.5c-0.2,0.3-0.4,0.8-0.4,1.3l0,0h2.8
	v-0.2c0-0.5-0.1-0.9-0.3-1.2C91.3,17.4,91,17.3,90.5,17.3z"/>
<linearGradient id="SVGID_00000065779235272620191270000007840977347448241074_" gradientUnits="userSpaceOnUse" x1="100.3733" y1="25.3897" x2="100.3733" y2="14.8069">
	<stop  offset="0" style="stop-color:#7D3DF6"/>
	<stop  offset="1" style="stop-color:#356EFE"/>
</linearGradient>
<path style="fill:url(#SVGID_00000065779235272620191270000007840977347448241074_);" d="M103.1,17.8l-1.1,0c-0.4,0-0.7,0.1-0.9,0.2
	c-0.2,0.1-0.4,0.3-0.5,0.6v6.8h-3.2V15h3.1l0.1,1.5c0.2-0.5,0.5-1,0.9-1.3c0.4-0.3,0.8-0.5,1.3-0.5c0.1,0,0.3,0,0.4,0
	c0.1,0,0.2,0,0.4,0.1L103.1,17.8z"/>
<linearGradient id="SVGID_00000018195833400755590790000011868127648783251641_" gradientUnits="userSpaceOnUse" x1="109.8876" y1="25.3897" x2="109.8876" y2="14.999">
	<stop  offset="0" style="stop-color:#7D3DF6"/>
	<stop  offset="1" style="stop-color:#356EFE"/>
</linearGradient>
<path style="fill:url(#SVGID_00000018195833400755590790000011868127648783251641_);" d="M109.7,21.1l0.2,1.1l0.1,0l0.2-1.1l1.4-6.1
	h3.4l-3.4,10.4h-3.3L104.9,15h3.4L109.7,21.1z"/>
<linearGradient id="SVGID_00000042724989491734905440000014033856238579090359_" gradientUnits="userSpaceOnUse" x1="118.2498" y1="25.3897" x2="118.2498" y2="10.4086">
	<stop  offset="0" style="stop-color:#7D3DF6"/>
	<stop  offset="1" style="stop-color:#356EFE"/>
</linearGradient>
<path style="fill:url(#SVGID_00000042724989491734905440000014033856238579090359_);" d="M119.9,12.6h-3.3v-2.2h3.3V12.6z
	 M119.9,25.4h-3.3V15h3.3V25.4z"/>
<linearGradient id="SVGID_00000050646895843146925340000002301017365196243357_" gradientUnits="userSpaceOnUse" x1="126.612" y1="25.5914" x2="126.612" y2="14.8069">
	<stop  offset="0" style="stop-color:#7D3DF6"/>
	<stop  offset="1" style="stop-color:#356EFE"/>
</linearGradient>
<path style="fill:url(#SVGID_00000050646895843146925340000002301017365196243357_);" d="M126.9,23.1c0.4,0,0.8-0.1,1-0.4
	c0.2-0.2,0.3-0.6,0.3-1h3l0,0.1c0,1.1-0.4,2.1-1.2,2.8c-0.8,0.7-1.8,1.1-3.1,1.1c-1.6,0-2.8-0.5-3.7-1.5c-0.9-1-1.3-2.2-1.3-3.8
	v-0.2c0-1.6,0.4-2.8,1.3-3.8c0.9-1,2.1-1.5,3.6-1.5c1.3,0,2.4,0.4,3.2,1.1c0.8,0.7,1.2,1.7,1.1,3l0,0.1h-3c0-0.5-0.1-0.9-0.3-1.2
	c-0.2-0.3-0.6-0.5-1-0.5c-0.6,0-1.1,0.3-1.3,0.8c-0.2,0.5-0.4,1.2-0.4,2v0.2c0,0.9,0.1,1.6,0.4,2C125.8,22.8,126.3,23.1,126.9,23.1z
	"/>
<linearGradient id="SVGID_00000085943161761530025290000007472116905422184834_" gradientUnits="userSpaceOnUse" x1="136.9741" y1="25.5914" x2="136.9741" y2="14.8068">
	<stop  offset="0" style="stop-color:#7D3DF6"/>
	<stop  offset="1" style="stop-color:#356EFE"/>
</linearGradient>
<path style="fill:url(#SVGID_00000085943161761530025290000007472116905422184834_);" d="M137.3,25.6c-1.6,0-2.8-0.5-3.7-1.4
	c-0.9-1-1.3-2.2-1.3-3.6v-0.4c0-1.6,0.4-2.9,1.3-3.9c0.8-1,2.1-1.5,3.7-1.5c1.4,0,2.5,0.4,3.3,1.3c0.8,0.8,1.2,2,1.2,3.4v1.7h-6
	l0,0.1c0.1,0.5,0.3,1,0.6,1.3c0.4,0.3,0.9,0.5,1.5,0.5c0.6,0,1.1-0.1,1.6-0.2c0.4-0.1,0.9-0.3,1.4-0.5l0.8,2
	c-0.4,0.3-1.1,0.6-1.8,0.8C139,25.5,138.2,25.6,137.3,25.6z M137.2,17.3c-0.5,0-0.9,0.2-1.1,0.5c-0.2,0.3-0.4,0.8-0.4,1.3l0,0h2.8
	v-0.2c0-0.5-0.1-0.9-0.3-1.2C138,17.4,137.7,17.3,137.2,17.3z"/>
<g>
	
		<linearGradient id="SVGID_00000163760801383777602680000004049746247840301203_" gradientUnits="userSpaceOnUse" x1="22.019" y1="11.8652" x2="22.019" y2="10.2962">
		<stop  offset="0" style="stop-color:#7D3DF6"/>
		<stop  offset="1" style="stop-color:#356EFE"/>
	</linearGradient>
	<circle style="fill:url(#SVGID_00000163760801383777602680000004049746247840301203_);" cx="22" cy="11.1" r="0.8"/>
	
		<linearGradient id="SVGID_00000023984631494307484230000010409753773999154848_" gradientUnits="userSpaceOnUse" x1="25.863" y1="11.8652" x2="25.863" y2="10.2962">
		<stop  offset="0" style="stop-color:#7D3DF6"/>
		<stop  offset="1" style="stop-color:#356EFE"/>
	</linearGradient>
	<circle style="fill:url(#SVGID_00000023984631494307484230000010409753773999154848_);" cx="25.9" cy="11.1" r="0.8"/>
	
		<linearGradient id="SVGID_00000145779969009806401780000002371475707380789394_" gradientUnits="userSpaceOnUse" x1="28.4202" y1="29.7047" x2="28.4202" y2="6.2953">
		<stop  offset="0" style="stop-color:#7D3DF6"/>
		<stop  offset="1" style="stop-color:#356EFE"/>
	</linearGradient>
	<path style="fill:url(#SVGID_00000145779969009806401780000002371475707380789394_);" d="M35.4,13.5c-3,0.3-3.8,2.3-4,3.2
		c-0.2,1-0.2,3.5-0.2,3.5s0.2,0.5,0.8,0.5c0.6,0,0.9-0.4,0.9-0.4l0-2.3c0-0.5,0.1-1,0.4-1.4c0.4-0.6,1.1-1.2,2.5-1.2
		c2.7,0.1,2.8,2.2,2.8,2.2s0.2,1.4,0,2c-0.2,0.6-1,1.8-2.3,2.2c-1.9,0.5-3.8,0.3-5.9,0.8c0.1-0.9-0.5-4-2.7-5.5
		c1.3-1.1,2.2-2.8,2.2-4.7c0-0.1,0-0.2,0-0.4c0.8-0.3,1.3-1,1.3-1.9c0-1.1-0.9-2-2-2c-0.3,0-0.6,0.1-0.8,0.2
		c-1.1-1.3-2.8-2.1-4.6-2.1c-1.8,0-3.5,0.8-4.6,2.1c-0.3-0.1-0.5-0.2-0.8-0.2c-1.1,0-2,0.9-2,2c0,0.9,0.6,1.6,1.3,1.9
		c0,0.1,0,0.2,0,0.4c0,3.4,2.7,6.1,6.1,6.1c0.3,0,0.6,0,0.9-0.1c0.8,0.6,2.6,1.9,2.6,3.4c0,2-0.6,4.1-3,4.5
		c-2.4,0.5-4.2-1.8-4.9-2.9c-0.7-1.1-2.7,0.8-2.2,2s2.9,4.4,6.7,4.1s5.8-3.6,7-4.2c1.3-0.6,3.1-1.2,6.1-2.2c3.1-1.1,3.3-3.1,3.3-5.3
		C40.3,16.1,38.4,13.2,35.4,13.5z M23.9,17c-1.8,0-3.2-1.4-3.2-3.2c0-0.3,0-0.6,0.1-0.9c-0.8-0.4-1.3-1.1-1.3-2c0-1.3,1-2.3,2.3-2.3
		c0.9,0,1.7,0.5,2,1.3c0.4-0.8,1.1-1.3,2-1.3c1.3,0,2.3,1,2.3,2.3c0,0.9-0.5,1.7-1.3,2c0.1,0.3,0.1,0.6,0.1,0.9
		C27.1,15.6,25.7,17,23.9,17z"/>
</g>
</svg>
