<?xml version="1.0" encoding="UTF-8"?>
<svg id="_图层_1" data-name="图层 1" xmlns="http://www.w3.org/2000/svg" xmlns:xlink="http://www.w3.org/1999/xlink" viewBox="0 0 433 414">
  <defs>
    <style>
      .cls-1 {
        fill: url(#_未命名的渐变_13-7);
      }

      .cls-2 {
        fill: url(#_未命名的渐变_13-3);
      }

      .cls-3 {
        fill: url(#_未命名的渐变_13-2);
      }

      .cls-4 {
        fill: url(#_未命名的渐变_13-11);
      }

      .cls-5 {
        fill: url(#_未命名的渐变_13);
      }

      .cls-6 {
        fill: url(#_未命名的渐变_13-10);
      }

      .cls-7 {
        fill: url(#_未命名的渐变_13-5);
      }

      .cls-8 {
        fill: url(#_未命名的渐变_13-9);
      }

      .cls-9 {
        fill: url(#_未命名的渐变_13-4);
      }

      .cls-10 {
        fill: url(#_未命名的渐变_13-6);
      }

      .cls-11 {
        fill: url(#_未命名的渐变_13-12);
      }

      .cls-12 {
        fill: url(#_未命名的渐变_13-8);
      }
    </style>
    <linearGradient id="_未命名的渐变_13" data-name="未命名的渐变 13" x1="135.6" y1="128.3" x2="135.6" y2="108.3" gradientUnits="userSpaceOnUse">
      <stop offset="0" stop-color="#7d3df6"/>
      <stop offset="1" stop-color="#356efe"/>
    </linearGradient>
    <linearGradient id="_未命名的渐变_13-2" data-name="未命名的渐变 13" x1="184.6" x2="184.6" xlink:href="#_未命名的渐变_13"/>
    <linearGradient id="_未命名的渐变_13-3" data-name="未命名的渐变 13" x1="217.2" y1="355.7" x2="217.2" y2="57.3" xlink:href="#_未命名的渐变_13"/>
    <linearGradient id="_未命名的渐变_13-4" data-name="未命名的渐变 13" x1="267.55" y1="133.59" x2="267.55" y2="117.25" xlink:href="#_未命名的渐变_13"/>
    <linearGradient id="_未命名的渐变_13-5" data-name="未命名的渐变 13" x1="281.56" y1="133.59" x2="281.56" y2="121.34" xlink:href="#_未命名的渐变_13"/>
    <linearGradient id="_未命名的渐变_13-6" data-name="未命名的渐变 13" x1="295.33" y1="133.59" x2="295.33" y2="117.25" xlink:href="#_未命名的渐变_13"/>
    <linearGradient id="_未命名的渐变_13-7" data-name="未命名的渐变 13" x1="308.69" y1="133.59" x2="308.69" y2="121.34" xlink:href="#_未命名的渐变_13"/>
    <linearGradient id="_未命名的渐变_13-8" data-name="未命名的渐变 13" x1="320.13" y1="133.36" x2="320.13" y2="121.34" xlink:href="#_未命名的渐变_13"/>
    <linearGradient id="_未命名的渐变_13-9" data-name="未命名的渐变 13" x1="330.94" y1="133.36" x2="330.94" y2="121.56" xlink:href="#_未命名的渐变_13"/>
    <linearGradient id="_未命名的渐变_13-10" data-name="未命名的渐变 13" x1="349.93" y1="133.59" x2="349.93" y2="121.34" xlink:href="#_未命名的渐变_13"/>
    <linearGradient id="_未命名的渐变_13-11" data-name="未命名的渐变 13" x1="361.7" y1="133.59" x2="361.7" y2="121.34" xlink:href="#_未命名的渐变_13"/>
    <linearGradient id="_未命名的渐变_13-12" data-name="未命名的渐变 13" x1="340.43" y1="133.36" x2="340.43" y2="116.35" xlink:href="#_未命名的渐变_13"/>
  </defs>
  <circle class="cls-5" cx="135.6" cy="118.3" r="10"/>
  <circle class="cls-3" cx="184.6" cy="118.3" r="10"/>
  <path class="cls-2" d="M306.5,149.3c-38,4-48.12,29.9-50.5,40.5-2.8,12.48-2,45-2,45,0,0,2.5,6.5,10.5,6.5s11.5-5.5,11.5-5.5l.5-29.01c0-6.43,1.64-12.8,5.03-18.26,4.81-7.74,14.12-15.76,31.97-15.23,34,1,36,28,36,28,0,0,2,18,0,26s-12.69,23.04-29.5,27.5c-24.5,6.5-48.5,3.5-75.5,10.5,.98-11.71-5.92-51.01-34.46-70.1,17.14-14.31,28.06-35.83,28.06-59.9,0-1.51-.05-3.02-.14-4.51,9.82-3.54,16.85-12.95,16.85-23.99,0-14.08-11.42-25.5-25.5-25.5-3.84,0-7.48,.86-10.75,2.38-14.29-16.17-35.18-26.38-58.46-26.38s-44.16,10.21-58.46,26.38c-3.27-1.52-6.91-2.38-10.75-2.38-14.08,0-25.5,11.42-25.5,25.5,0,11.04,7.02,20.45,16.85,23.99-.09,1.49-.14,2.99-.14,4.51,0,43.08,34.92,78,78,78,3.69,0,7.31-.27,10.86-.77,10.81,7.24,32.54,24.24,32.54,43.77,0,26-8,51.7-38.5,57.85-30.5,6.15-53.5-22.85-62.5-36.85-9-14-35,10-28,26,7,16,36.5,56.22,85.25,52.11,48.75-4.11,73.75-46.11,89.75-54.11s40.01-15.69,77.5-28.5c39.5-13.5,42-40,42-67,0-24-24.5-60.5-62.5-56.5Zm-146.75,44.5c-22.37,0-40.5-18.13-40.5-40.5,0-3.99,.59-7.85,1.66-11.49-9.58-4.74-16.16-14.6-16.16-26.01,0-16.02,12.98-29,29-29,11.4,0,21.26,6.58,26,16.15,4.74-9.57,14.6-16.15,26-16.15,16.02,0,29,12.98,29,29,0,11.41-6.59,21.27-16.16,26.01,1.08,3.64,1.66,7.5,1.66,11.49,0,22.37-18.13,40.5-40.5,40.5Z"/>
</svg>