<?xml version="1.0" encoding="UTF-8"?>
<svg id="_图层_1" data-name="图层 1" xmlns="http://www.w3.org/2000/svg" xmlns:xlink="http://www.w3.org/1999/xlink" viewBox="0 0 433 414">
  <defs>
    <style>
      .cls-1 {
        fill: url(#_未命名的渐变_13-7);
      }

      .cls-2 {
        fill: url(#_未命名的渐变_13-3);
      }

      .cls-3 {
        fill: url(#_未命名的渐变_13-2);
      }

      .cls-4 {
        fill: url(#_未命名的渐变_13-11);
      }

      .cls-5 {
        fill: url(#_未命名的渐变_13);
      }

      .cls-6 {
        fill: url(#_未命名的渐变_13-10);
      }

      .cls-7 {
        fill: url(#_未命名的渐变_13-5);
      }

      .cls-8 {
        fill: url(#_未命名的渐变_13-9);
      }

      .cls-9 {
        fill: url(#_未命名的渐变_13-4);
      }

      .cls-10 {
        fill: url(#_未命名的渐变_13-6);
      }

      .cls-11 {
        fill: url(#_未命名的渐变_13-12);
      }

      .cls-12 {
        fill: url(#_未命名的渐变_13-8);
      }
    </style>
    <linearGradient id="_未命名的渐变_13" data-name="未命名的渐变 13" x1="135.6" y1="128.3" x2="135.6" y2="108.3" gradientUnits="userSpaceOnUse">
      <stop offset="0" stop-color="#7d3df6"/>
      <stop offset="1" stop-color="#356efe"/>
    </linearGradient>
    <linearGradient id="_未命名的渐变_13-2" data-name="未命名的渐变 13" x1="184.6" x2="184.6" xlink:href="#_未命名的渐变_13"/>
    <linearGradient id="_未命名的渐变_13-3" data-name="未命名的渐变 13" x1="217.2" y1="355.7" x2="217.2" y2="57.3" xlink:href="#_未命名的渐变_13"/>
    <linearGradient id="_未命名的渐变_13-4" data-name="未命名的渐变 13" x1="267.55" y1="133.59" x2="267.55" y2="117.25" xlink:href="#_未命名的渐变_13"/>
    <linearGradient id="_未命名的渐变_13-5" data-name="未命名的渐变 13" x1="281.56" y1="133.59" x2="281.56" y2="121.34" xlink:href="#_未命名的渐变_13"/>
    <linearGradient id="_未命名的渐变_13-6" data-name="未命名的渐变 13" x1="295.33" y1="133.59" x2="295.33" y2="117.25" xlink:href="#_未命名的渐变_13"/>
    <linearGradient id="_未命名的渐变_13-7" data-name="未命名的渐变 13" x1="308.69" y1="133.59" x2="308.69" y2="121.34" xlink:href="#_未命名的渐变_13"/>
    <linearGradient id="_未命名的渐变_13-8" data-name="未命名的渐变 13" x1="320.13" y1="133.36" x2="320.13" y2="121.34" xlink:href="#_未命名的渐变_13"/>
    <linearGradient id="_未命名的渐变_13-9" data-name="未命名的渐变 13" x1="330.94" y1="133.36" x2="330.94" y2="121.56" xlink:href="#_未命名的渐变_13"/>
    <linearGradient id="_未命名的渐变_13-10" data-name="未命名的渐变 13" x1="349.93" y1="133.59" x2="349.93" y2="121.34" xlink:href="#_未命名的渐变_13"/>
    <linearGradient id="_未命名的渐变_13-11" data-name="未命名的渐变 13" x1="361.7" y1="133.59" x2="361.7" y2="121.34" xlink:href="#_未命名的渐变_13"/>
    <linearGradient id="_未命名的渐变_13-12" data-name="未命名的渐变 13" x1="340.43" y1="133.36" x2="340.43" y2="116.35" xlink:href="#_未命名的渐变_13"/>
  </defs>
  <circle class="cls-5" cx="135.6" cy="118.3" r="10"/>
  <circle class="cls-3" cx="184.6" cy="118.3" r="10"/>
  <path class="cls-2" d="M306.5,149.3c-38,4-48.12,29.9-50.5,40.5-2.8,12.48-2,45-2,45,0,0,2.5,6.5,10.5,6.5s11.5-5.5,11.5-5.5l.5-29.01c0-6.43,1.64-12.8,5.03-18.26,4.81-7.74,14.12-15.76,31.97-15.23,34,1,36,28,36,28,0,0,2,18,0,26s-12.69,23.04-29.5,27.5c-24.5,6.5-48.5,3.5-75.5,10.5,.98-11.71-5.92-51.01-34.46-70.1,17.14-14.31,28.06-35.83,28.06-59.9,0-1.51-.05-3.02-.14-4.51,9.82-3.54,16.85-12.95,16.85-23.99,0-14.08-11.42-25.5-25.5-25.5-3.84,0-7.48,.86-10.75,2.38-14.29-16.17-35.18-26.38-58.46-26.38s-44.16,10.21-58.46,26.38c-3.27-1.52-6.91-2.38-10.75-2.38-14.08,0-25.5,11.42-25.5,25.5,0,11.04,7.02,20.45,16.85,23.99-.09,1.49-.14,2.99-.14,4.51,0,43.08,34.92,78,78,78,3.69,0,7.31-.27,10.86-.77,10.81,7.24,32.54,24.24,32.54,43.77,0,26-8,51.7-38.5,57.85-30.5,6.15-53.5-22.85-62.5-36.85-9-14-35,10-28,26,7,16,36.5,56.22,85.25,52.11,48.75-4.11,73.75-46.11,89.75-54.11s40.01-15.69,77.5-28.5c39.5-13.5,42-40,42-67,0-24-24.5-60.5-62.5-56.5Zm-146.75,44.5c-22.37,0-40.5-18.13-40.5-40.5,0-3.99,.59-7.85,1.66-11.49-9.58-4.74-16.16-14.6-16.16-26.01,0-16.02,12.98-29,29-29,11.4,0,21.26,6.58,26,16.15,4.74-9.57,14.6-16.15,26-16.15,16.02,0,29,12.98,29,29,0,11.41-6.59,21.27-16.16,26.01,1.08,3.64,1.66,7.5,1.66,11.49,0,22.37-18.13,40.5-40.5,40.5Z"/>
  <g>
    <path class="cls-9" d="M273.98,131.17c-.55,.67-1.33,1.24-2.33,1.71-1,.47-2.29,.71-3.87,.71-1.97,0-3.57-.6-4.8-1.81-1.23-1.21-1.84-2.77-1.84-4.7v-3.32c0-1.91,.6-3.48,1.79-4.69,1.2-1.21,2.74-1.82,4.62-1.82,2.03,0,3.56,.45,4.6,1.36,1.04,.91,1.54,2.14,1.5,3.71l-.02,.07h-3.46c0-.78-.21-1.36-.62-1.73-.41-.38-1.04-.57-1.88-.57s-1.55,.34-2.07,1.01-.79,1.56-.79,2.64v3.34c0,1.11,.26,1.99,.78,2.67,.52,.67,1.25,1.01,2.19,1.01,.68,0,1.21-.05,1.6-.16,.39-.11,.7-.25,.92-.44v-2.84h-2.81v-2.44h6.5v6.29Z"/>
    <path class="cls-7" d="M275.85,127.35c0-1.77,.5-3.22,1.51-4.34,1-1.12,2.4-1.67,4.2-1.67s3.21,.56,4.21,1.67c1,1.12,1.51,2.56,1.51,4.34v.23c0,1.78-.5,3.23-1.51,4.34s-2.4,1.67-4.19,1.67-3.22-.56-4.22-1.67-1.51-2.56-1.51-4.34v-.23Zm3.69,.23c0,.99,.15,1.77,.46,2.33,.31,.56,.83,.85,1.58,.85s1.24-.28,1.55-.85c.31-.57,.47-1.34,.47-2.32v-.23c0-.96-.16-1.73-.47-2.31-.31-.58-.84-.87-1.57-.87s-1.25,.29-1.55,.87c-.31,.58-.46,1.35-.46,2.3v.23Z"/>
    <path class="cls-10" d="M297.82,129.15c0-.57-.19-1-.56-1.3-.37-.3-1.04-.62-2.02-.97-1.97-.64-3.43-1.32-4.39-2.04-.96-.72-1.43-1.76-1.43-3.12s.56-2.41,1.67-3.23c1.11-.82,2.53-1.23,4.24-1.23,1.81,0,3.27,.42,4.37,1.27,1.11,.85,1.64,2.04,1.6,3.58l-.02,.07h-3.58c0-.75-.2-1.29-.61-1.63-.41-.34-1.02-.51-1.84-.51-.67,0-1.2,.16-1.58,.49-.39,.33-.58,.73-.58,1.21s.2,.84,.59,1.12c.4,.28,1.14,.63,2.22,1.05,1.84,.55,3.23,1.21,4.18,2,.95,.79,1.42,1.86,1.42,3.23s-.55,2.49-1.64,3.28c-1.09,.79-2.54,1.18-4.34,1.18s-3.32-.42-4.56-1.27c-1.25-.85-1.85-2.18-1.82-4l.02-.07h3.59c0,.92,.23,1.58,.68,1.97,.45,.39,1.15,.58,2.09,.58,.77,0,1.35-.15,1.72-.46,.38-.31,.57-.71,.57-1.2Z"/>
    <path class="cls-1" d="M309.11,133.59c-1.79,0-3.19-.54-4.2-1.63-1.01-1.08-1.52-2.45-1.52-4.11v-.41c0-1.8,.48-3.27,1.43-4.41,.96-1.13,2.34-1.7,4.15-1.69,1.59,0,2.83,.48,3.7,1.43,.88,.95,1.31,2.26,1.31,3.92v1.93h-6.76l-.02,.07c.06,.62,.29,1.12,.69,1.5,.4,.38,.97,.57,1.72,.57,.71,0,1.29-.06,1.76-.17,.47-.12,1.01-.3,1.61-.56l.88,2.25c-.51,.37-1.19,.68-2.05,.94-.86,.25-1.76,.38-2.7,.38Zm-.14-9.41c-.59,0-1.02,.19-1.3,.56-.28,.37-.44,.88-.49,1.52l.02,.05h3.18v-.28c0-.61-.11-1.07-.32-1.39-.21-.31-.58-.47-1.1-.47Z"/>
    <path class="cls-12" d="M323.22,124.7h-1.2c-.42-.01-.77,.07-1.04,.22-.27,.16-.47,.38-.6,.66v7.78h-3.69v-11.8h3.47l.13,1.73c.25-.62,.57-1.1,.98-1.44,.41-.34,.88-.51,1.43-.51,.17,0,.32,.01,.45,.03,.13,.02,.27,.05,.41,.1l-.35,3.23Z"/>
    <path class="cls-8" d="M330.69,128.5l.22,1.25h.07s.24-1.25,.24-1.25l1.56-6.94h3.87l-3.84,11.8h-3.74l-3.84-11.8h3.88l1.58,6.94Z"/>
    <path class="cls-6" d="M350.3,130.76c.5,0,.88-.14,1.12-.41s.37-.67,.37-1.18h3.36l.02,.07c.03,1.29-.42,2.34-1.34,3.15-.92,.81-2.1,1.22-3.54,1.22-1.8,0-3.18-.55-4.15-1.66-.97-1.11-1.46-2.55-1.46-4.34v-.25c0-1.77,.48-3.22,1.45-4.33,.97-1.11,2.34-1.67,4.13-1.67,1.5,0,2.7,.42,3.59,1.25,.9,.83,1.33,1.97,1.3,3.42l-.02,.07h-3.36c0-.56-.13-1.02-.38-1.37-.25-.35-.63-.53-1.13-.53-.71,0-1.21,.29-1.49,.86-.28,.57-.42,1.34-.42,2.31v.25c0,.99,.14,1.76,.42,2.32,.28,.56,.78,.84,1.51,.84Z"/>
    <path class="cls-4" d="M362.12,133.59c-1.79,0-3.19-.54-4.2-1.63-1.01-1.08-1.52-2.45-1.52-4.11v-.41c0-1.8,.48-3.27,1.43-4.41,.96-1.13,2.34-1.7,4.15-1.69,1.59,0,2.83,.48,3.7,1.43,.88,.95,1.31,2.26,1.31,3.92v1.93h-6.76l-.02,.07c.06,.62,.29,1.12,.69,1.5,.4,.38,.97,.57,1.72,.57,.71,0,1.29-.06,1.76-.17,.47-.12,1.01-.3,1.61-.56l.88,2.25c-.51,.37-1.19,.68-2.05,.94-.86,.25-1.76,.38-2.7,.38Zm-.14-9.41c-.59,0-1.02,.19-1.3,.56-.28,.37-.44,.88-.49,1.52l.02,.05h3.18v-.28c0-.61-.11-1.07-.32-1.39-.21-.31-.58-.47-1.1-.47Z"/>
    <path class="cls-11" d="M342.28,118.82h-3.7v-2.48h3.7v2.48Zm0,14.54h-3.7v-11.8h3.7v11.8Z"/>
  </g>
</svg>