<?xml version="1.0" encoding="UTF-8"?>
<svg id="_图层_1" data-name="图层_1" xmlns="http://www.w3.org/2000/svg" version="1.1" xmlns:xlink="http://www.w3.org/1999/xlink" viewBox="0 0 153.2 36">
  <!-- Generator: Adobe Illustrator 29.0.0, SVG Export Plug-In . SVG Version: 2.1.0 Build 186)  -->
  <defs>
    <style>
      .st0 {
        fill: url(#_未命名的渐变_112);
      }

      .st1 {
        fill: url(#_未命名的渐变_8);
      }

      .st2 {
        fill: url(#_未命名的渐变_5);
      }

      .st3 {
        fill: url(#_未命名的渐变_11);
      }

      .st4 {
        fill: url(#_未命名的渐变_9);
      }

      .st5 {
        fill: url(#_未命名的渐变_6);
      }

      .st6 {
        fill: url(#_未命名的渐变_114);
      }

      .st7 {
        fill: url(#_未命名的渐变_7);
      }

      .st8 {
        fill: url(#_未命名的渐变_111);
      }

      .st9 {
        fill: url(#_未命名的渐变_113);
      }

      .st10 {
        fill: url(#_未命名的渐变_4);
      }

      .st11 {
        fill: url(#_未命名的渐变_10);
      }
    </style>
    <linearGradient id="_未命名的渐变_4" data-name="未命名的渐变 4" x1="119.8" y1="26.3" x2="119.8" y2="9.3" gradientTransform="translate(0 35.9) scale(1 -1)" gradientUnits="userSpaceOnUse">
      <stop offset="0" stop-color="#3370ff"/>
      <stop offset="1" stop-color="#7f3bf5"/>
    </linearGradient>
    <linearGradient id="_未命名的渐变_5" data-name="未命名的渐变 5" x1="135.4" y1="26.8" x2="135.4" y2="9.5" gradientTransform="translate(0 35.9) scale(1 -1)" gradientUnits="userSpaceOnUse">
      <stop offset="0" stop-color="#3370ff"/>
      <stop offset="1" stop-color="#7f3bf5"/>
    </linearGradient>
    <linearGradient id="_未命名的渐变_6" data-name="未命名的渐变 6" x1="29.5" y1="9.1" x2="29.5" y2="6.2" gradientTransform="translate(0 35.9) scale(1 -1)" gradientUnits="userSpaceOnUse">
      <stop offset="0" stop-color="#3370ff"/>
      <stop offset="1" stop-color="#7f3bf5"/>
    </linearGradient>
    <linearGradient id="_未命名的渐变_7" data-name="未命名的渐变 7" x1="44.3" y1="22.5" x2="44.3" y2="16.1" gradientTransform="translate(0 35.9) scale(1 -1)" gradientUnits="userSpaceOnUse">
      <stop offset="0" stop-color="#3370ff"/>
      <stop offset="1" stop-color="#7f3bf5"/>
    </linearGradient>
    <linearGradient id="_未命名的渐变_8" data-name="未命名的渐变 8" x1="15.5" y1="22.5" x2="15.5" y2="16.1" gradientTransform="translate(0 35.9) scale(1 -1)" gradientUnits="userSpaceOnUse">
      <stop offset="0" stop-color="#3370ff"/>
      <stop offset="1" stop-color="#7f3bf5"/>
    </linearGradient>
    <linearGradient id="_未命名的渐变_9" data-name="未命名的渐变 9" x1="33.4" y1="21.6" x2="33.4" y2="18.1" gradientTransform="translate(0 35.9) scale(1 -1)" gradientUnits="userSpaceOnUse">
      <stop offset="0" stop-color="#3370ff"/>
      <stop offset="1" stop-color="#7f3bf5"/>
    </linearGradient>
    <linearGradient id="_未命名的渐变_10" data-name="未命名的渐变 10" x1="26.7" y1="21.6" x2="26.7" y2="18.1" gradientTransform="translate(0 35.9) scale(1 -1)" gradientUnits="userSpaceOnUse">
      <stop offset="0" stop-color="#3370ff"/>
      <stop offset="1" stop-color="#7f3bf5"/>
    </linearGradient>
    <linearGradient id="_未命名的渐变_11" data-name="未命名的渐变 11" x1="29.9" y1="29" x2="29.9" y2="9.7" gradientTransform="translate(0 35.9) scale(1 -1)" gradientUnits="userSpaceOnUse">
      <stop offset="0" stop-color="#3370ff"/>
      <stop offset="1" stop-color="#7f3bf5"/>
    </linearGradient>
    <linearGradient id="_未命名的渐变_111" data-name="未命名的渐变 11" x1="58.7" y1="9.1" x2="58.7" y2="26.9" gradientTransform="matrix(1,0,0,1,0,0)" xlink:href="#_未命名的渐变_11"/>
    <linearGradient id="_未命名的渐变_112" data-name="未命名的渐变 11" x1="76.6" y1="13.8" x2="76.6" y2="26.9" gradientTransform="matrix(1,0,0,1,0,0)" xlink:href="#_未命名的渐变_11"/>
    <linearGradient id="_未命名的渐变_113" data-name="未命名的渐变 11" x1="91.2" y1="8.9" x2="91.2" y2="26.9" gradientTransform="matrix(1,0,0,1,0,0)" xlink:href="#_未命名的渐变_11"/>
    <linearGradient id="_未命名的渐变_114" data-name="未命名的渐变 11" x1="104" y1="13.7" x2="104" y2="27" gradientTransform="matrix(1,0,0,1,0,0)" xlink:href="#_未命名的渐变_11"/>
  </defs>
  <path class="st10" d="M122.5,27c0-.1-4.2-6.8-4.2-6.8l-1.4,2.1v4.7h-4.6V9.1h4.6v7.2l4.2-7.2h4.8l-5,7.9,6.3,9.9h-4.7Z"/>
  <path class="st2" d="M142.4,22.1c0,2.6-1.3,5-5.9,5h-8.1V9h6.2c0-.1,3.7-.3,5.5,1.1,1.4,1,1.8,2.8,1.7,4.4-.1,1.5-.8,2.5-2,3.2,1.6.6,2.6,1.8,2.6,4.4ZM135.6,16.3c1.5,0,2.4-.8,2.4-1.9s-.8-1.9-2.4-1.9h-2.7v3.7h2.7ZM135.7,23.5c2.1,0,2.7-1.1,2.7-1.9,0-1.2-.9-2.1-2.3-2.1h-3.2v4h2.8Z"/>
  <path class="st5" d="M31.8,26.7h-4.6l-1.7,1.7c0,0-.2.2-.2.4s0,.3,0,.4c0,.1.1.2.3.3.1,0,.3.1.4.1h7c.1,0,.3,0,.4-.1.1,0,.2-.2.3-.3,0-.1,0-.3,0-.4s0-.3-.2-.4l-1.7-1.7Z"/>
  <path class="st7" d="M44.4,13.4h-.9v6.4h.9c0,0,.2,0,.3,0,0,0,.2,0,.2-.1,0,0,.1-.1.1-.2,0,0,0-.2,0-.3v-5c0-.2,0-.4-.2-.5-.1-.1-.3-.2-.5-.2Z"/>
  <path class="st1" d="M16.3,13.4h-.9c-.2,0-.4,0-.5.2-.1.1-.2.3-.2.5v5c0,0,0,.2,0,.3,0,0,0,.2.1.2,0,0,.1.1.2.1,0,0,.2,0,.3,0h.9v-6.4Z"/>
  <path class="st4" d="M33.4,14.2c-.3,0-.7.1-.9.4s-.4.6-.4.9v.9c0,.3.1.7.4.9.2.2.6.4.9.4s.7-.1.9-.4c.2-.2.4-.6.4-.9v-.9c0-.2,0-.3,0-.5,0-.2-.2-.3-.3-.4-.1-.1-.3-.2-.4-.3-.2,0-.3,0-.5,0Z"/>
  <path class="st11" d="M26.7,14.2c-.3,0-.7.1-.9.4-.2.2-.4.6-.4.9v.9c0,.3.1.7.4.9.2.2.6.4.9.4s.7-.1.9-.4c.2-.2.4-.6.4-.9v-.9c0-.2,0-.3,0-.5,0-.2-.2-.3-.3-.4-.1-.1-.3-.2-.4-.3-.2,0-.3,0-.5,0Z"/>
  <path class="st3" d="M37.8,6.9h-15.7c-1.4,0-2.7.6-3.7,1.5-1,1-1.5,2.3-1.5,3.7v8.8c0,1.4.6,2.7,1.5,3.7,1,1,2.3,1.5,3.7,1.5h15.7c1.4,0,2.7-.6,3.7-1.5,1-1,1.5-2.3,1.5-3.7v-8.8c0-1.4-.6-2.7-1.5-3.7-1-1-2.3-1.5-3.7-1.5ZM38.2,20.9c0,.2,0,.5-.3.7-.2.2-.4.3-.7.3h-7.6c-1.2,0-2.3.3-3.3.9l-2.6,1.4v-2.3h-1.2c-.2,0-.5,0-.7-.3-.2-.2-.3-.4-.3-.7v-9.4c0-.2,0-.5.3-.7s.4-.3.7-.3h14.7c.2,0,.5,0,.7.3.2.2.3.4.3.7v9.4Z"/>
  <polyline class="st8" points="63.8 26.9 63.8 12.6 60.5 23.6 56.7 23.6 53.5 12.6 53.5 26.9 49.8 26.9 49.8 26.6 49.8 9.1 55.7 9.1 58.6 19.2 61.6 9.1 67.5 9.1 67.5 26.9"/>
  <path class="st0" d="M77.9,13.8h-2.6c-2.7,0-4.9,2.2-4.9,4.9v3.4c0,2.7,2.2,4.9,4.9,4.9h2.6c2.7,0,4.9-2.2,4.9-4.9v-3.4c0-2.7-2.2-4.9-4.9-4.9ZM79.2,22.1c0,1.2-1,2.2-2.2,2.2h-.9c-1.2,0-2.2-1-2.2-2.2v-3.5c0-1.2,1-2.2,2.2-2.2h.9c1.2,0,2.2,1,2.2,2.2v3.5Z"/>
  <polygon class="st9" points="85.2 8.9 85.2 26.9 88.7 26.9 88.7 21.2 89.4 21.2 92.7 26.9 97.2 26.9 92.3 19.8 96.7 13.8 92.8 13.8 89.4 18.7 88.6 18.7 88.8 8.9 85.2 8.9"/>
  <path class="st6" d="M110.1,21.1v-2.7c0-.9-.1-1.3-.3-1.8-.6-1.4-2-2.4-3.4-2.7-.4,0-1-.3-2.1-.2-.7,0-1.2,0-1.8.2-.4,0-1.2.2-1.8.7-1.6.9-2,2.7-2.3,3.6-.3,1.2-.3,2.1-.2,2.7,0,.4,0,1.1.3,2,.2.7.6,2,1.7,3,.9.7,1.7.8,3.2,1.1.8.1,2.4.4,4.3,0,.8-.2,1.4-.5,1.8-.7v-2.8s0,0,0,0c-.8.4-2.5,1.2-4.6,1.1-1.3-.1-1.9-.5-2.1-.7-.3-.2-.8-.6-1-1.3,0-.4,0-.7,0-.9l8.3-.3ZM101.6,19.2c0,0,0-.2,0-.3,0-.1,0-1.9,1.3-2.6.2-.1.5-.2,1-.2.9-.1,1.5-.2,2.1.1.9.5,1.2,1.6,1.1,2.4,0,.1,0,.3,0,.3l-5.4.2Z"/>
</svg>